<svg width="235" height="50" viewBox="0 0 335 100" fill="none" xmlns="http://www.w3.org/2000/svg">
<g clip-path="url(#clip0)">
<path d="M-1.12 74.96C-1.12 72.4 2.72 65.52 10.4 54.32C10.1333 53.36 10 52.48 10 51.68C10 50.88 10.6667 49.9467 12 48.88C13.3333 47.8133 14.3467 47.28 15.04 47.28C15.1467 47.28 15.2267 47.28 15.28 47.28C18.4267 42.96 21.2267 39.3067 23.68 36.32C26.1333 33.3333 27.5733 31.84 28 31.84C28.4267 31.84 28.7467 32.0267 28.96 32.4C29.2267 32.72 29.36 33.0667 29.36 33.44C25.0933 38.72 20.72 44.4267 16.24 50.56L16.4 51.12L19.28 50.88C23.3333 50.6133 27.7333 49.7067 32.48 48.16C37.2267 46.56 41.12 44.7467 44.16 42.72C50.4533 38.4533 53.6 34.5333 53.6 30.96C53.6 29.4133 52.56 28.1067 50.48 27.04C48.4 25.9733 45.1467 25.44 40.72 25.44C36.2933 25.44 30.2667 26.5333 22.64 28.72C15.0667 30.8533 9.78667 33.2 6.8 35.76C5.94667 36.5067 5.62667 37.0933 5.84 37.52C6.10667 37.9467 6.16 38.1867 6 38.24C5.84 38.2933 5.6 38.2133 5.28 38C4.16 37.36 3.44 36.56 3.12 35.6C2.85333 34.64 2.72 33.92 2.72 33.44C2.72 32.96 2.85333 32.6133 3.12 32.4C4.88 29.84 8.8 27.44 14.88 25.2C21.0133 22.9067 26.6667 21.4133 31.84 20.72C37.0133 19.9733 40.8267 19.6 43.28 19.6C45.7867 19.6 47.84 19.76 49.44 20.08C51.0933 20.4 52.56 21.12 53.84 22.24C55.8133 23.8933 56.8 26.2133 56.8 29.2C56.8 32.1333 55.7067 34.8533 53.52 37.36C51.3333 39.8667 48.5067 42.1333 45.04 44.16C41.6267 46.1333 37.4667 47.92 32.56 49.52C26.8533 51.3867 21.6 52.32 16.8 52.32C18.5067 56.5867 21.92 60.9067 27.04 65.28C32.2133 69.6 36.48 71.76 39.84 71.76C41.1733 71.76 42.3467 71.44 43.36 70.8C44.3733 70.16 44.96 69.36 45.12 68.4C45.12 68.1333 45.2533 68.0533 45.52 68.16C45.6267 68.32 45.68 68.4533 45.68 68.56C45.2533 72.1333 42.2133 73.92 36.56 73.92C33.3067 73.92 29.92 73.0667 26.4 71.36C22.88 69.6533 19.8667 67.52 17.36 64.96C14.9067 62.4 12.96 59.76 11.52 57.04C5.86667 65.2533 2.37333 71.04 1.04 74.4C0.72 75.2533 0.293333 75.68 -0.24 75.68C-0.826667 75.68 -1.12 75.44 -1.12 74.96ZM61.1131 70.64C57.5398 72.4533 54.4198 73.36 51.7531 73.36C49.5131 73.36 47.9931 72.6133 47.1931 71.12C46.7665 70.3733 46.5531 69.52 46.5531 68.56C46.5531 66.3733 47.0598 64.24 48.0731 62.16C47.3798 62.8533 46.7131 63.4133 46.0731 63.84C45.5398 64.32 45.2731 64.2667 45.2731 63.68C45.2731 63.3067 45.7531 62.72 46.7131 61.92C47.6198 61.12 49.0331 59.7867 50.9531 57.92C52.8731 56 54.3931 54.56 55.5131 53.6C58.7665 50.88 62.2065 49.52 65.8331 49.52C67.1665 49.52 68.5265 49.8667 69.9131 50.56C71.9398 51.52 72.9531 53.28 72.9531 55.84C72.9531 58.9333 71.4065 62.1067 68.3131 65.36C67.0865 66.7467 65.3798 68.1333 63.1931 69.52C67.5665 68.8267 72.2065 66.1867 77.1131 61.6C77.3798 61.3867 77.6198 61.3067 77.8331 61.36C78.0465 61.36 78.1531 61.4667 78.1531 61.68C78.1531 61.8933 78.0465 62.1067 77.8331 62.32C71.9665 67.8667 66.4998 70.64 61.4331 70.64C61.3265 70.64 61.2198 70.64 61.1131 70.64ZM68.8731 62.24C70.2065 60.2133 70.8731 58.5067 70.8731 57.12C70.8731 55.68 70.2598 54.5867 69.0331 53.84C68.3398 53.2533 67.5398 52.96 66.6331 52.96C63.3798 52.96 60.3665 54.24 57.5931 56.8C54.8731 59.36 53.0598 62.08 52.1531 64.96C51.7798 65.9733 51.5931 67.04 51.5931 68.16C51.5931 69.2267 51.9931 70 52.7931 70.48C53.6465 70.9067 54.5798 71.12 55.5931 71.12C56.6065 71.12 58.0731 70.6133 59.9931 69.6C59.8865 69.6 59.7265 69.5467 59.5131 69.44C58.8731 69.12 58.5531 68.6933 58.5531 68.16C58.5531 66.2933 59.5931 64.4 61.6731 62.48C63.1665 61.1467 64.6865 60.48 66.2331 60.48C67.7798 60.48 68.6598 61.0667 68.8731 62.24ZM72.2369 67.6C72.1835 67.5467 72.1569 67.4667 72.1569 67.36C72.1569 67.2533 72.2635 67.2 72.4769 67.2C72.6369 67.2 72.7435 67.3067 72.7969 67.52C73.7569 69.6533 75.3302 70.72 77.5169 70.72C80.2369 70.72 82.6102 69.3867 84.6369 66.72C86.1302 64.7467 87.4369 62.6933 88.5569 60.56C89.7302 58.3733 90.6902 56.64 91.4369 55.36C92.2369 54.08 93.4369 52.64 95.0369 51.04C96.6902 49.44 98.1835 48.4533 99.5169 48.08C99.1969 47.92 98.6635 47.84 97.9169 47.84C97.1702 47.84 95.7569 48.4 93.6769 49.52C91.6502 50.5867 89.6235 51.9733 87.5969 53.68C85.5702 55.3333 83.3835 57.2267 81.0369 59.36C78.6902 61.4933 77.2769 62.7467 76.7969 63.12C76.3169 63.4933 76.0235 63.4933 75.9169 63.12C75.8102 62.7467 75.9435 62.4 76.3169 62.08C77.7035 60.9067 79.7035 59.0933 82.3169 56.64C84.9302 54.1333 86.9035 52.32 88.2369 51.2C89.6235 50.0267 91.1702 49.04 92.8769 48.24C94.5835 47.3867 95.8635 46.96 96.7169 46.96C98.8502 46.96 100.157 47.3333 100.637 48.08C99.2502 48.6667 98.1035 50.2133 97.1969 52.72C96.3435 55.2267 95.3569 58.1333 94.2369 61.44C93.1702 64.7467 91.8102 67.3333 90.1569 69.2C91.5435 68.6667 93.6769 67.44 96.5569 65.52C99.4902 63.5467 102.077 61.4133 104.317 59.12C104.797 58.6933 105.144 58.64 105.357 58.96C105.357 59.0667 105.357 59.2 105.357 59.36C105.357 59.4667 104.85 60.0267 103.837 61.04C102.824 62.0533 101.57 63.2 100.077 64.48C98.6369 65.7067 96.8235 67.0933 94.6369 68.64C90.1035 71.84 85.5435 73.44 80.9569 73.44C76.4235 73.44 73.5169 71.4933 72.2369 67.6ZM117.568 47.6C116.981 47.12 116.741 46.4267 116.848 45.52C116.955 44.6133 117.435 43.6533 118.288 42.64C119.141 41.6267 120.288 41.12 121.728 41.12C122.155 41.12 122.608 41.3333 123.088 41.76C123.568 42.1333 123.755 42.8 123.648 43.76C123.541 44.6667 123.115 45.5467 122.368 46.4C121.621 47.2 120.768 47.7333 119.808 48C118.901 48.2133 118.155 48.08 117.568 47.6ZM116.528 51.84C114.341 54.08 112.501 56.9333 111.008 60.4C109.568 63.8133 108.848 66.2133 108.848 67.6C108.848 68.9867 109.381 69.68 110.448 69.68C111.568 69.68 113.381 68.88 115.888 67.28C118.448 65.68 121.355 63.4133 124.608 60.48C125.301 59.84 125.648 59.92 125.648 60.72C125.648 60.8267 125.595 60.9333 125.488 61.04C122.928 63.28 120.768 65.12 119.008 66.56C117.248 68 115.141 69.3867 112.688 70.72C110.288 72 108.315 72.64 106.768 72.64C104.848 72.64 103.408 72.2133 102.448 71.36C101.541 70.5067 101.088 69.5733 101.088 68.56C101.088 66.64 101.435 65.12 102.128 64C102.821 62.88 103.995 61.3333 105.648 59.36C105.061 59.84 104.128 60.64 102.848 61.76C101.621 62.88 100.768 63.6267 100.288 64C99.8081 64.3733 99.5681 64.2667 99.5681 63.68C99.5681 63.3067 99.9948 62.7733 100.848 62.08C101.701 61.3867 103.541 59.6267 106.368 56.8C109.248 53.9733 111.195 52.2933 112.208 51.76C113.275 51.2267 114.128 50.96 114.768 50.96C115.461 50.96 115.968 51.0667 116.288 51.28C116.608 51.44 116.688 51.6267 116.528 51.84ZM205.733 25.92C205.306 25.2267 204.56 24.88 203.493 24.88C202.426 24.88 201.413 25.0133 200.453 25.28C199.546 25.5467 198.453 25.92 197.173 26.4C195.093 27.2533 193.413 28.0533 192.133 28.8C187.333 31.36 182.853 34.3733 178.693 37.84C174.533 41.2533 172.346 43.8133 172.133 45.52C172.026 46.8533 172.746 47.9467 174.293 48.8C175.626 49.6 177.173 50.3733 178.933 51.12C180.693 51.8133 181.973 52.3467 182.773 52.72C187.04 54.8533 189.173 57.68 189.173 61.2C189.173 62.7467 188.72 64.24 187.813 65.68C186.373 67.92 184.186 69.7867 181.253 71.28C178.373 72.72 175.28 73.7333 171.973 74.32C168.56 74.9067 165.733 75.2 163.493 75.2C159.44 75.2 155.386 74.32 151.333 72.56C147.28 70.8533 144.773 68.16 143.813 64.48C145.786 66.24 148.506 67.4933 151.973 68.24C155.44 68.9867 158.746 69.36 161.893 69.36C166.586 69.3067 170.053 68.9333 172.293 68.24C174.586 67.5467 176.56 66.7467 178.213 65.84C179.92 64.88 181.466 63.7867 182.853 62.56C184.293 61.28 185.013 59.8933 185.013 58.4C185.013 56.8533 184 55.4667 181.973 54.24C181.813 54.1333 180.186 53.4667 177.093 52.24C174.053 51.0133 171.706 49.6533 170.053 48.16C168.453 46.6667 167.653 44.96 167.653 43.04C167.653 39.4133 169.893 35.7333 174.373 32C178.853 28.2133 183.733 25.28 189.013 23.2C194.346 21.12 198.88 20.08 202.613 20.08C205.226 20.08 207.253 20.56 208.693 21.52C210.133 22.4267 210.853 23.7067 210.853 25.36C210.853 25.5733 210.853 25.8133 210.853 26.08C210.693 27.7333 207.786 31.1733 202.133 36.4C200.053 38.32 198.213 40.48 196.613 42.88C195.066 45.2267 194.293 47.3067 194.293 49.12C194.293 49.28 194.293 49.44 194.293 49.6C192.64 48.32 191.813 46.6133 191.813 44.48C191.813 42.56 192.64 40.2133 194.293 37.44C196.693 33.3867 200.506 29.5467 205.733 25.92ZM227.881 60.88C227.614 61.84 227.481 62.7467 227.481 63.6C227.481 64.4 227.801 64.8 228.441 64.8C229.134 64.8 230.227 64.1867 231.721 62.96C233.214 61.7333 234.201 60.88 234.681 60.4C235.161 59.92 235.401 60 235.401 60.64C235.401 60.9067 235.321 61.12 235.161 61.28C233.454 62.9867 232.201 64.1333 231.401 64.72C229.907 65.8933 228.627 66.48 227.561 66.48C225.854 66.48 224.894 65.52 224.681 63.6C219.561 69.6267 215.481 72.64 212.441 72.64C210.574 72.64 209.187 72.24 208.281 71.44C207.427 70.64 207.001 69.7867 207.001 68.88C207.001 67.9733 207.134 66.88 207.401 65.6C203.134 70.2933 199.641 72.64 196.921 72.64C195.054 72.64 193.667 72.24 192.761 71.44C191.854 70.5867 191.401 69.6533 191.401 68.64C191.401 66.6667 191.747 65.12 192.441 64C193.134 62.88 194.307 61.3333 195.961 59.36C192.601 62.1867 190.787 63.7333 190.521 64C190.201 64.2667 190.014 64.2133 189.961 63.84C189.961 63.36 190.254 62.8533 190.841 62.32C192.121 61.36 194.121 59.4933 196.841 56.72C199.614 53.9467 201.507 52.2933 202.521 51.76C203.587 51.2267 204.441 50.96 205.081 50.96C205.774 50.96 206.281 51.0667 206.601 51.28C206.921 51.44 207.001 51.6267 206.841 51.84C205.294 53.3867 203.774 55.5733 202.281 58.4C200.254 62.3467 199.241 65.4933 199.241 67.84C199.241 68.2133 199.267 68.5333 199.321 68.8C199.641 69.8133 200.681 69.7333 202.441 68.56C203.081 68.1333 203.801 67.5733 204.601 66.88C205.454 66.1333 207.241 64 209.961 60.48C212.734 56.96 214.681 54.9067 215.801 54.32C216.921 53.7333 217.827 53.44 218.521 53.44C219.214 53.44 219.747 53.6267 220.121 54C220.547 54.32 220.654 54.5867 220.441 54.8C217.721 57.68 215.881 61.3867 214.921 65.92C214.601 67.7867 214.627 68.8533 215.001 69.12C215.374 69.3333 215.721 69.44 216.041 69.44C216.414 69.3867 216.841 69.2267 217.321 68.96C219.454 67.7867 221.854 65.52 224.521 62.16C224.681 57.1467 225.774 53.52 227.801 51.28C228.654 50.2133 230.307 49.68 232.761 49.68C233.827 49.68 234.307 50 234.201 50.64L233.721 51.44C230.467 55.44 228.521 58.5867 227.881 60.88ZM251.767 59.52C254.594 57.9733 256.007 56.4 256.007 54.8C256.007 53.2 255.047 52.4 253.127 52.4C252.22 52.4 251.26 52.64 250.247 53.12C248.007 54.1333 245.847 55.8933 243.767 58.4C241.207 61.4933 239.927 64.3733 239.927 67.04C239.927 68.0533 240.194 69.0133 240.727 69.92C241.314 70.7733 242.327 71.2 243.767 71.2C246.274 71.2 249.447 69.8933 253.287 67.28C257.127 64.6133 260.434 61.9467 263.207 59.28C263.847 58.64 264.167 58.6133 264.167 59.2C264.167 59.5733 264.007 59.8933 263.687 60.16C261.714 61.9733 260.38 63.2 259.687 63.84C259.047 64.4267 257.74 65.52 255.767 67.12C253.794 68.6667 252.194 69.76 250.967 70.4C247.18 72.3733 243.954 73.36 241.287 73.36C238.674 73.36 236.594 72.7733 235.047 71.6C233.554 70.3733 232.807 68.6933 232.807 66.56C232.807 62.0267 234.834 58.1333 238.887 54.88C242.94 51.5733 247.18 49.92 251.607 49.92C254.594 49.92 256.594 50.56 257.607 51.84C258.034 52.48 258.247 53.1733 258.247 53.92C258.247 54.6133 258.007 55.3867 257.527 56.24C256.567 57.8933 254.754 59.36 252.087 60.64C249.474 61.8667 246.994 62.48 244.647 62.48C243.74 62.48 243.234 62.4 243.127 62.24C243.074 62.08 243.154 61.9733 243.367 61.92C243.58 61.8133 243.874 61.76 244.247 61.76C246.38 61.76 248.887 61.0133 251.767 59.52ZM279.111 59.52C281.937 57.9733 283.351 56.4 283.351 54.8C283.351 53.2 282.391 52.4 280.471 52.4C279.564 52.4 278.604 52.64 277.591 53.12C275.351 54.1333 273.191 55.8933 271.111 58.4C268.551 61.4933 267.271 64.3733 267.271 67.04C267.271 68.0533 267.537 69.0133 268.071 69.92C268.657 70.7733 269.671 71.2 271.111 71.2C273.617 71.2 276.791 69.8933 280.631 67.28C284.471 64.6133 287.777 61.9467 290.551 59.28C291.191 58.64 291.511 58.6133 291.511 59.2C291.511 59.5733 291.351 59.8933 291.031 60.16C289.057 61.9733 287.724 63.2 287.031 63.84C286.391 64.4267 285.084 65.52 283.111 67.12C281.137 68.6667 279.537 69.76 278.311 70.4C274.524 72.3733 271.297 73.36 268.631 73.36C266.017 73.36 263.937 72.7733 262.391 71.6C260.897 70.3733 260.151 68.6933 260.151 66.56C260.151 62.0267 262.177 58.1333 266.231 54.88C270.284 51.5733 274.524 49.92 278.951 49.92C281.937 49.92 283.937 50.56 284.951 51.84C285.377 52.48 285.591 53.1733 285.591 53.92C285.591 54.6133 285.351 55.3867 284.871 56.24C283.911 57.8933 282.097 59.36 279.431 60.64C276.817 61.8667 274.337 62.48 271.991 62.48C271.084 62.48 270.577 62.4 270.471 62.24C270.417 62.08 270.497 61.9733 270.711 61.92C270.924 61.8133 271.217 61.76 271.591 61.76C273.724 61.76 276.231 61.0133 279.111 59.52ZM302.134 44.56C303.308 42.8 304.241 41.4133 304.934 40.4C305.681 39.3333 306.268 38.56 306.694 38.08C307.121 37.6 308.081 37.2 309.574 36.88C311.068 36.5067 312.508 36.32 313.894 36.32C315.281 36.32 315.974 36.48 315.974 36.8C315.974 37.0667 314.828 38.2933 312.534 40.48C310.241 42.6667 307.574 45.5733 304.534 49.2C308.161 49.7867 310.534 50.9333 311.654 52.64C312.081 53.3867 312.134 53.8667 311.814 54.08C311.548 54.2933 311.228 54.2133 310.854 53.84C309.734 52.72 307.948 52.16 305.494 52.16C304.428 52.16 303.228 52.2667 301.894 52.48C297.574 58.0267 294.854 62.56 293.734 66.08C293.361 67.0933 293.174 67.9467 293.174 68.64C293.174 70.5067 293.948 71.44 295.494 71.44C297.148 71.44 299.468 70.2933 302.454 68C306.348 65.0667 309.734 62.16 312.614 59.28C313.148 58.6933 313.494 58.56 313.654 58.88C313.814 59.2 313.681 59.5467 313.254 59.92C308.668 64.72 304.801 68.2667 301.654 70.56C298.561 72.8 295.708 73.92 293.094 73.92C289.521 73.92 287.734 72.0267 287.734 68.24C287.734 66.4267 288.241 64.2667 289.254 61.76L287.814 63.12C287.388 63.5467 287.094 63.68 286.934 63.52C286.721 63.3067 286.614 63.12 286.614 62.96C286.614 62.8 286.828 62.5333 287.254 62.16C291.148 58.7467 293.814 56.16 295.254 54.4C294.241 54.7733 293.548 54.8 293.174 54.48C292.854 54.16 292.614 53.7333 292.454 53.2C292.348 52.6667 292.614 52.0267 293.254 51.28C293.948 50.48 294.934 49.92 296.214 49.6C297.548 49.2267 298.534 49.0133 299.174 48.96C299.974 47.7867 300.961 46.32 302.134 44.56ZM305.362 67.6C305.309 67.5467 305.282 67.4667 305.282 67.36C305.282 67.2533 305.389 67.2 305.602 67.2C305.762 67.2 305.869 67.3067 305.922 67.52C306.882 69.6533 308.455 70.72 310.642 70.72C313.362 70.72 315.735 69.3867 317.762 66.72C319.255 64.7467 320.562 62.6933 321.682 60.56C322.855 58.3733 323.815 56.64 324.562 55.36C325.362 54.08 326.562 52.64 328.162 51.04C329.815 49.44 331.309 48.4533 332.642 48.08C332.322 47.92 331.789 47.84 331.042 47.84C330.295 47.84 328.882 48.4 326.802 49.52C324.775 50.5867 322.749 51.9733 320.722 53.68C318.695 55.3333 316.509 57.2267 314.162 59.36C311.815 61.4933 310.402 62.7467 309.922 63.12C309.442 63.4933 309.149 63.4933 309.042 63.12C308.935 62.7467 309.069 62.4 309.442 62.08C310.829 60.9067 312.829 59.0933 315.442 56.64C318.055 54.1333 320.029 52.32 321.362 51.2C322.749 50.0267 324.295 49.04 326.002 48.24C327.709 47.3867 328.989 46.96 329.842 46.96C331.975 46.96 333.282 47.3333 333.762 48.08C332.375 48.6667 331.229 50.2133 330.322 52.72C329.469 55.2267 328.482 58.1333 327.362 61.44C326.295 64.7467 324.935 67.3333 323.282 69.2C324.669 68.6667 326.802 67.44 329.682 65.52C332.615 63.5467 335.202 61.4133 337.442 59.12C337.922 58.6933 338.269 58.64 338.482 58.96C338.482 59.0667 338.482 59.2 338.482 59.36C338.482 59.4667 337.975 60.0267 336.962 61.04C335.949 62.0533 334.695 63.2 333.202 64.48C331.762 65.7067 329.949 67.0933 327.762 68.64C323.229 71.84 318.669 73.44 314.082 73.44C309.549 73.44 306.642 71.4933 305.362 67.6Z" fill="#C18BAE"/>
</g>
<defs>
<clipPath id="clip0">
<rect width="335" height="100" fill="white"/>
</clipPath>
</defs>
</svg>
