<svg width="80" height="80" viewBox="0 0 217 218" fill="none" xmlns="http://www.w3.org/2000/svg">
<g clip-path="url(#clip0)">
<g clip-path="url(#clip1)">
<path d="M108.6 0C48.6 0 0 48.8 0 108.9C0 169 48.6 217.8 108.6 217.8C168.5 217.8 217.2 169 217.2 108.9C217.2 48.8 168.5 0 108.6 0ZM108.6 210.2C53.5 210.2 8.9 164.8 8.9 108.9C8.9 53 53.5 7.6 108.6 7.6C163.7 7.6 208.3 53 208.3 108.9C208.3 164.9 163.7 210.2 108.6 210.2Z" fill="#C18BAE"/>
<path fill-rule="evenodd" clip-rule="evenodd" d="M100.6 111.7C115.8 111.7 128.2 100.4 128.2 86.5C128.2 76.7 122.1 68.2 113.1 64C127.4 64.5 138.9 75.8 138.9 89.6C138.9 103.7 126.9 115.2 112.1 115.2C107.2 115.2 102.6 113.9 98.6 111.7C99.3 111.7 99.9 111.7 100.6 111.7Z" fill="#C18BAE"/>
<path fill-rule="evenodd" clip-rule="evenodd" d="M107.7 57.4C93.4 62.6 85.5 77.4 90.2 90.5C93.5 99.7 102.2 105.7 112 106.6C98.3 111 83.8 104.3 79.1 91.3C74.4 77.9 81.9 63.1 95.8 58C100.4 56.3 105.2 56 109.6 56.7C109 56.9 108.4 57.1 107.7 57.4Z" fill="#C18BAE"/>
<path fill-rule="evenodd" clip-rule="evenodd" d="M155.5 68.1C155.8 66.3 155.9 64.5 155.9 62.6C155.2 43 133.5 27.7 107.4 28.5C81.3 29.3 60.7 45.8 61.4 65.4C61.4 65.9 61.4 66.3 61.5 66.8C68.5 53.4 85.9 43.6 106.7 43C129.5 42.2 149.1 52.9 155.5 68.1Z" fill="#C18BAE"/>
<path d="M146.6 111.4C151 113.2 156.9 116.1 165.2 118.4C176 121.4 189.8 120.9 191.1 118.8C192.6 116.5 182.8 105.1 175.9 100.2C167.4 94.1 159 91.4 153.4 90.1" stroke="#CDBFAB" stroke-width="1.9946" stroke-miterlimit="10"/>
<path d="M155.8 101.9C171.5 103.5 194.3 120.9 194.3 120.9" stroke="#CDBFAB" stroke-width="1.9946" stroke-miterlimit="10" stroke-linecap="round"/>
<path d="M65.7 111.4C61.3 113.2 55.4 116.1 47.1 118.4C36.3 121.4 22.7 120.8 21.2 118.8C19.6 116.7 29.5 105.1 36.4 100.2C44.9 94.1 53.3 91.4 58.9 90.1" stroke="#CDBFAB" stroke-width="1.9946" stroke-miterlimit="10" stroke-linecap="round"/>
<path d="M57.3 101.2C41.6 102.8 18.8 120.2 18.8 120.2" stroke="#CDBFAB" stroke-width="1.9946" stroke-miterlimit="10" stroke-linecap="round"/>
<path fill-rule="evenodd" clip-rule="evenodd" d="M116.8 127.1C135.4 127.1 150.5 110.9 150.5 91C150.5 76.9 143 64.7 132.1 58.8C149.6 59.5 163.6 75.6001 163.6 95.4001C163.6 115.6 148.9 132 130.9 132C124.9 132 119.3 130.2 114.4 127C115.2 127.1 116 127.1 116.8 127.1Z" fill="#C18BAE"/>
<path fill-rule="evenodd" clip-rule="evenodd" d="M70.4 66.9C57.2 85.7 61 110.9 79 123.1C91.3 131.5 107.1 131.5 120 124.6C107 138.2 85.2 140.5 68.6 129.2C50.4 116.8 45.5 92.7 57.6 75.4C61.9 69.3 67.7 64.8 74.3 62.2C72.9 63.6 71.6 65.2 70.4 66.9Z" fill="#C18BAE"/>
<path d="M66.1 153C68.9 161.9 69.7 175.2 69.8 182.4C69.9 185.3 72.2 187.5 75.1 187.5H142C145 187.5 147.3 185.1 147.3 182.1C147.1 174.9 147.2 161.9 149.4 152.9C150.5 148.5 152.7 142.6 154 139.2C154.3 138.3 153.4 137.5 152.6 138L144.3 143.1C143.3 143.7 142.2 143.8 141.2 143.3C139 142.2 134.7 140.5 131.7 141.2C129.3 141.8 126.5 144.1 125 145.5C124.4 146 123.5 146 123 145.4C121.5 143.8 118.5 141.1 115.9 141.2C113.6 141.3 111 143.8 109.6 145.3C109.1 145.9 108.1 145.9 107.6 145.3C106 143.7 103 141 100.5 141.2C98.3 141.3 95.7 143.8 94.3 145.3C93.8 145.9 92.8 145.9 92.3 145.3C90.8 143.8 87.9 141.2 85.5 141.1C82.9 141.1 78.2 142.6 75.9 143.5C75 143.8 74 143.7 73.2 143.3L62.9 137.6C62.1 137.2 61.2 137.9 61.5 138.8C62.5 142.3 64.6 148.4 66.1 153Z" fill="#CDBFAB"/>
</g>
</g>
</svg>
