<svg width="300" height="100" viewBox="0 0 613 218" fill="none" xmlns="http://www.w3.org/2000/svg">
<g clip-path="url(#clip0)">
<g clip-path="url(#clip1)">
<path d="M108.6 0C48.6 0 0 48.8 0 108.9C0 169 48.6 217.8 108.6 217.8C168.5 217.8 217.2 169 217.2 108.9C217.2 48.8 168.5 0 108.6 0ZM108.6 210.2C53.5 210.2 8.9 164.8 8.9 108.9C8.9 53 53.5 7.6 108.6 7.6C163.7 7.6 208.3 53 208.3 108.9C208.3 164.9 163.7 210.2 108.6 210.2Z" fill="#C18BAE"/>
<path fill-rule="evenodd" clip-rule="evenodd" d="M100.6 111.7C115.8 111.7 128.2 100.4 128.2 86.5C128.2 76.7 122.1 68.2 113.1 64C127.4 64.5 138.9 75.8 138.9 89.6C138.9 103.7 126.9 115.2 112.1 115.2C107.2 115.2 102.6 113.9 98.6 111.7C99.3 111.7 99.9 111.7 100.6 111.7Z" fill="#C18BAE"/>
<path fill-rule="evenodd" clip-rule="evenodd" d="M107.7 57.4C93.4 62.6 85.5 77.4 90.2 90.5C93.5 99.7 102.2 105.7 112 106.6C98.3 111 83.8 104.3 79.1 91.3C74.4 77.9 81.9 63.1 95.8 58C100.4 56.3 105.2 56 109.6 56.7C109 56.9 108.4 57.1 107.7 57.4Z" fill="#C18BAE"/>
<path fill-rule="evenodd" clip-rule="evenodd" d="M155.5 68.1C155.8 66.3 155.9 64.5 155.9 62.6C155.2 43 133.5 27.7 107.4 28.5C81.3 29.3 60.7 45.8 61.4 65.4C61.4 65.9 61.4 66.3 61.5 66.8C68.5 53.4 85.9 43.6 106.7 43C129.5 42.2 149.1 52.9 155.5 68.1Z" fill="#C18BAE"/>
<path d="M146.6 111.4C151 113.2 156.9 116.1 165.2 118.4C176 121.4 189.8 120.9 191.1 118.8C192.6 116.5 182.8 105.1 175.9 100.2C167.4 94.1 159 91.4 153.4 90.1" stroke="#CDBFAB" stroke-width="1.9946" stroke-miterlimit="10"/>
<path d="M155.8 101.9C171.5 103.5 194.3 120.9 194.3 120.9" stroke="#CDBFAB" stroke-width="1.9946" stroke-miterlimit="10" stroke-linecap="round"/>
<path d="M65.7 111.4C61.3 113.2 55.4 116.1 47.1 118.4C36.3 121.4 22.7 120.8 21.2 118.8C19.6 116.7 29.5 105.1 36.4 100.2C44.9 94.1 53.3 91.4 58.9 90.1" stroke="#CDBFAB" stroke-width="1.9946" stroke-miterlimit="10" stroke-linecap="round"/>
<path d="M57.3 101.2C41.6 102.8 18.8 120.2 18.8 120.2" stroke="#CDBFAB" stroke-width="1.9946" stroke-miterlimit="10" stroke-linecap="round"/>
<path fill-rule="evenodd" clip-rule="evenodd" d="M116.8 127.1C135.4 127.1 150.5 110.9 150.5 91C150.5 76.9 143 64.7 132.1 58.8C149.6 59.5 163.6 75.6001 163.6 95.4001C163.6 115.6 148.9 132 130.9 132C124.9 132 119.3 130.2 114.4 127C115.2 127.1 116 127.1 116.8 127.1Z" fill="#C18BAE"/>
<path fill-rule="evenodd" clip-rule="evenodd" d="M70.4 66.9C57.2 85.7 61 110.9 79 123.1C91.3 131.5 107.1 131.5 120 124.6C107 138.2 85.2 140.5 68.6 129.2C50.4 116.8 45.5 92.7 57.6 75.4C61.9 69.3 67.7 64.8 74.3 62.2C72.9 63.6 71.6 65.2 70.4 66.9Z" fill="#C18BAE"/>
<path d="M66.1 153C68.9 161.9 69.7 175.2 69.8 182.4C69.9 185.3 72.2 187.5 75.1 187.5H142C145 187.5 147.3 185.1 147.3 182.1C147.1 174.9 147.2 161.9 149.4 152.9C150.5 148.5 152.7 142.6 154 139.2C154.3 138.3 153.4 137.5 152.6 138L144.3 143.1C143.3 143.7 142.2 143.8 141.2 143.3C139 142.2 134.7 140.5 131.7 141.2C129.3 141.8 126.5 144.1 125 145.5C124.4 146 123.5 146 123 145.4C121.5 143.8 118.5 141.1 115.9 141.2C113.6 141.3 111 143.8 109.6 145.3C109.1 145.9 108.1 145.9 107.6 145.3C106 143.7 103 141 100.5 141.2C98.3 141.3 95.7 143.8 94.3 145.3C93.8 145.9 92.8 145.9 92.3 145.3C90.8 143.8 87.9 141.2 85.5 141.1C82.9 141.1 78.2 142.6 75.9 143.5C75 143.8 74 143.7 73.2 143.3L62.9 137.6C62.1 137.2 61.2 137.9 61.5 138.8C62.5 142.3 64.6 148.4 66.1 153Z" fill="#CDBFAB"/>
</g>
<path d="M276.88 133.96C276.88 131.4 280.72 124.52 288.4 113.32C288.133 112.36 288 111.48 288 110.68C288 109.88 288.667 108.947 290 107.88C291.333 106.813 292.347 106.28 293.04 106.28C293.147 106.28 293.227 106.28 293.28 106.28C296.427 101.96 299.227 98.3067 301.68 95.32C304.133 92.3333 305.573 90.84 306 90.84C306.427 90.84 306.747 91.0267 306.96 91.4C307.227 91.72 307.36 92.0667 307.36 92.44C303.093 97.72 298.72 103.427 294.24 109.56L294.4 110.12L297.28 109.88C301.333 109.613 305.733 108.707 310.48 107.16C315.227 105.56 319.12 103.747 322.16 101.72C328.453 97.4533 331.6 93.5333 331.6 89.96C331.6 88.4133 330.56 87.1067 328.48 86.04C326.4 84.9733 323.147 84.44 318.72 84.44C314.293 84.44 308.267 85.5333 300.64 87.72C293.067 89.8533 287.787 92.2 284.8 94.76C283.947 95.5067 283.627 96.0933 283.84 96.52C284.107 96.9467 284.16 97.1867 284 97.24C283.84 97.2933 283.6 97.2133 283.28 97C282.16 96.36 281.44 95.56 281.12 94.6C280.853 93.64 280.72 92.92 280.72 92.44C280.72 91.96 280.853 91.6133 281.12 91.4C282.88 88.84 286.8 86.44 292.88 84.2C299.013 81.9067 304.667 80.4133 309.84 79.72C315.013 78.9733 318.827 78.6 321.28 78.6C323.787 78.6 325.84 78.76 327.44 79.08C329.093 79.4 330.56 80.12 331.84 81.24C333.813 82.8933 334.8 85.2133 334.8 88.2C334.8 91.1333 333.707 93.8533 331.52 96.36C329.333 98.8667 326.507 101.133 323.04 103.16C319.627 105.133 315.467 106.92 310.56 108.52C304.853 110.387 299.6 111.32 294.8 111.32C296.507 115.587 299.92 119.907 305.04 124.28C310.213 128.6 314.48 130.76 317.84 130.76C319.173 130.76 320.347 130.44 321.36 129.8C322.373 129.16 322.96 128.36 323.12 127.4C323.12 127.133 323.253 127.053 323.52 127.16C323.627 127.32 323.68 127.453 323.68 127.56C323.253 131.133 320.213 132.92 314.56 132.92C311.307 132.92 307.92 132.067 304.4 130.36C300.88 128.653 297.867 126.52 295.36 123.96C292.907 121.4 290.96 118.76 289.52 116.04C283.867 124.253 280.373 130.04 279.04 133.4C278.72 134.253 278.293 134.68 277.76 134.68C277.173 134.68 276.88 134.44 276.88 133.96ZM339.113 129.64C335.54 131.453 332.42 132.36 329.753 132.36C327.513 132.36 325.993 131.613 325.193 130.12C324.766 129.373 324.553 128.52 324.553 127.56C324.553 125.373 325.06 123.24 326.073 121.16C325.38 121.853 324.713 122.413 324.073 122.84C323.54 123.32 323.273 123.267 323.273 122.68C323.273 122.307 323.753 121.72 324.713 120.92C325.62 120.12 327.033 118.787 328.953 116.92C330.873 115 332.393 113.56 333.513 112.6C336.766 109.88 340.206 108.52 343.833 108.52C345.166 108.52 346.526 108.867 347.913 109.56C349.94 110.52 350.953 112.28 350.953 114.84C350.953 117.933 349.406 121.107 346.313 124.36C345.086 125.747 343.38 127.133 341.193 128.52C345.566 127.827 350.206 125.187 355.113 120.6C355.38 120.387 355.62 120.307 355.833 120.36C356.046 120.36 356.153 120.467 356.153 120.68C356.153 120.893 356.046 121.107 355.833 121.32C349.966 126.867 344.5 129.64 339.433 129.64C339.326 129.64 339.22 129.64 339.113 129.64ZM346.873 121.24C348.206 119.213 348.873 117.507 348.873 116.12C348.873 114.68 348.26 113.587 347.033 112.84C346.34 112.253 345.54 111.96 344.633 111.96C341.38 111.96 338.366 113.24 335.593 115.8C332.873 118.36 331.06 121.08 330.153 123.96C329.78 124.973 329.593 126.04 329.593 127.16C329.593 128.227 329.993 129 330.793 129.48C331.646 129.907 332.58 130.12 333.593 130.12C334.606 130.12 336.073 129.613 337.993 128.6C337.886 128.6 337.726 128.547 337.513 128.44C336.873 128.12 336.553 127.693 336.553 127.16C336.553 125.293 337.593 123.4 339.673 121.48C341.166 120.147 342.686 119.48 344.233 119.48C345.78 119.48 346.66 120.067 346.873 121.24ZM350.237 126.6C350.184 126.547 350.157 126.467 350.157 126.36C350.157 126.253 350.264 126.2 350.477 126.2C350.637 126.2 350.744 126.307 350.797 126.52C351.757 128.653 353.33 129.72 355.517 129.72C358.237 129.72 360.61 128.387 362.637 125.72C364.13 123.747 365.437 121.693 366.557 119.56C367.73 117.373 368.69 115.64 369.437 114.36C370.237 113.08 371.437 111.64 373.037 110.04C374.69 108.44 376.184 107.453 377.517 107.08C377.197 106.92 376.664 106.84 375.917 106.84C375.17 106.84 373.757 107.4 371.677 108.52C369.65 109.587 367.624 110.973 365.597 112.68C363.57 114.333 361.384 116.227 359.037 118.36C356.69 120.493 355.277 121.747 354.797 122.12C354.317 122.493 354.024 122.493 353.917 122.12C353.81 121.747 353.944 121.4 354.317 121.08C355.704 119.907 357.704 118.093 360.317 115.64C362.93 113.133 364.904 111.32 366.237 110.2C367.624 109.027 369.17 108.04 370.877 107.24C372.584 106.387 373.864 105.96 374.717 105.96C376.85 105.96 378.157 106.333 378.637 107.08C377.25 107.667 376.104 109.213 375.197 111.72C374.344 114.227 373.357 117.133 372.237 120.44C371.17 123.747 369.81 126.333 368.157 128.2C369.544 127.667 371.677 126.44 374.557 124.52C377.49 122.547 380.077 120.413 382.317 118.12C382.797 117.693 383.144 117.64 383.357 117.96C383.357 118.067 383.357 118.2 383.357 118.36C383.357 118.467 382.85 119.027 381.837 120.04C380.824 121.053 379.57 122.2 378.077 123.48C376.637 124.707 374.824 126.093 372.637 127.64C368.104 130.84 363.544 132.44 358.957 132.44C354.424 132.44 351.517 130.493 350.237 126.6ZM395.568 106.6C394.981 106.12 394.741 105.427 394.848 104.52C394.955 103.613 395.435 102.653 396.288 101.64C397.141 100.627 398.288 100.12 399.728 100.12C400.155 100.12 400.608 100.333 401.088 100.76C401.568 101.133 401.755 101.8 401.648 102.76C401.541 103.667 401.115 104.547 400.368 105.4C399.621 106.2 398.768 106.733 397.808 107C396.901 107.213 396.155 107.08 395.568 106.6ZM394.528 110.84C392.341 113.08 390.501 115.933 389.008 119.4C387.568 122.813 386.848 125.213 386.848 126.6C386.848 127.987 387.381 128.68 388.448 128.68C389.568 128.68 391.381 127.88 393.888 126.28C396.448 124.68 399.355 122.413 402.608 119.48C403.301 118.84 403.648 118.92 403.648 119.72C403.648 119.827 403.595 119.933 403.488 120.04C400.928 122.28 398.768 124.12 397.008 125.56C395.248 127 393.141 128.387 390.688 129.72C388.288 131 386.315 131.64 384.768 131.64C382.848 131.64 381.408 131.213 380.448 130.36C379.541 129.507 379.088 128.573 379.088 127.56C379.088 125.64 379.435 124.12 380.128 123C380.821 121.88 381.995 120.333 383.648 118.36C383.061 118.84 382.128 119.64 380.848 120.76C379.621 121.88 378.768 122.627 378.288 123C377.808 123.373 377.568 123.267 377.568 122.68C377.568 122.307 377.995 121.773 378.848 121.08C379.701 120.387 381.541 118.627 384.368 115.8C387.248 112.973 389.195 111.293 390.208 110.76C391.275 110.227 392.128 109.96 392.768 109.96C393.461 109.96 393.968 110.067 394.288 110.28C394.608 110.44 394.688 110.627 394.528 110.84ZM483.733 84.92C483.306 84.2267 482.56 83.88 481.493 83.88C480.426 83.88 479.413 84.0133 478.453 84.28C477.546 84.5467 476.453 84.92 475.173 85.4C473.093 86.2533 471.413 87.0533 470.133 87.8C465.333 90.36 460.853 93.3733 456.693 96.84C452.533 100.253 450.346 102.813 450.133 104.52C450.026 105.853 450.746 106.947 452.293 107.8C453.626 108.6 455.173 109.373 456.933 110.12C458.693 110.813 459.973 111.347 460.773 111.72C465.04 113.853 467.173 116.68 467.173 120.2C467.173 121.747 466.72 123.24 465.813 124.68C464.373 126.92 462.186 128.787 459.253 130.28C456.373 131.72 453.28 132.733 449.973 133.32C446.56 133.907 443.733 134.2 441.493 134.2C437.44 134.2 433.386 133.32 429.333 131.56C425.28 129.853 422.773 127.16 421.813 123.48C423.786 125.24 426.506 126.493 429.973 127.24C433.44 127.987 436.746 128.36 439.893 128.36C444.586 128.307 448.053 127.933 450.293 127.24C452.586 126.547 454.56 125.747 456.213 124.84C457.92 123.88 459.466 122.787 460.853 121.56C462.293 120.28 463.013 118.893 463.013 117.4C463.013 115.853 462 114.467 459.973 113.24C459.813 113.133 458.186 112.467 455.093 111.24C452.053 110.013 449.706 108.653 448.053 107.16C446.453 105.667 445.653 103.96 445.653 102.04C445.653 98.4133 447.893 94.7333 452.373 91C456.853 87.2133 461.733 84.28 467.013 82.2C472.346 80.12 476.88 79.08 480.613 79.08C483.226 79.08 485.253 79.56 486.693 80.52C488.133 81.4267 488.853 82.7067 488.853 84.36C488.853 84.5733 488.853 84.8133 488.853 85.08C488.693 86.7333 485.786 90.1733 480.133 95.4C478.053 97.32 476.213 99.48 474.613 101.88C473.066 104.227 472.293 106.307 472.293 108.12C472.293 108.28 472.293 108.44 472.293 108.6C470.64 107.32 469.813 105.613 469.813 103.48C469.813 101.56 470.64 99.2133 472.293 96.44C474.693 92.3867 478.506 88.5467 483.733 84.92ZM505.881 119.88C505.614 120.84 505.481 121.747 505.481 122.6C505.481 123.4 505.801 123.8 506.441 123.8C507.134 123.8 508.227 123.187 509.721 121.96C511.214 120.733 512.201 119.88 512.681 119.4C513.161 118.92 513.401 119 513.401 119.64C513.401 119.907 513.321 120.12 513.161 120.28C511.454 121.987 510.201 123.133 509.401 123.72C507.907 124.893 506.627 125.48 505.561 125.48C503.854 125.48 502.894 124.52 502.681 122.6C497.561 128.627 493.481 131.64 490.441 131.64C488.574 131.64 487.187 131.24 486.281 130.44C485.427 129.64 485.001 128.787 485.001 127.88C485.001 126.973 485.134 125.88 485.401 124.6C481.134 129.293 477.641 131.64 474.921 131.64C473.054 131.64 471.667 131.24 470.761 130.44C469.854 129.587 469.401 128.653 469.401 127.64C469.401 125.667 469.747 124.12 470.441 123C471.134 121.88 472.307 120.333 473.961 118.36C470.601 121.187 468.787 122.733 468.521 123C468.201 123.267 468.014 123.213 467.961 122.84C467.961 122.36 468.254 121.853 468.841 121.32C470.121 120.36 472.121 118.493 474.841 115.72C477.614 112.947 479.507 111.293 480.521 110.76C481.587 110.227 482.441 109.96 483.081 109.96C483.774 109.96 484.281 110.067 484.601 110.28C484.921 110.44 485.001 110.627 484.841 110.84C483.294 112.387 481.774 114.573 480.281 117.4C478.254 121.347 477.241 124.493 477.241 126.84C477.241 127.213 477.267 127.533 477.321 127.8C477.641 128.813 478.681 128.733 480.441 127.56C481.081 127.133 481.801 126.573 482.601 125.88C483.454 125.133 485.241 123 487.961 119.48C490.734 115.96 492.681 113.907 493.801 113.32C494.921 112.733 495.827 112.44 496.521 112.44C497.214 112.44 497.747 112.627 498.121 113C498.547 113.32 498.654 113.587 498.441 113.8C495.721 116.68 493.881 120.387 492.921 124.92C492.601 126.787 492.627 127.853 493.001 128.12C493.374 128.333 493.721 128.44 494.041 128.44C494.414 128.387 494.841 128.227 495.321 127.96C497.454 126.787 499.854 124.52 502.521 121.16C502.681 116.147 503.774 112.52 505.801 110.28C506.654 109.213 508.307 108.68 510.761 108.68C511.827 108.68 512.307 109 512.201 109.64L511.721 110.44C508.467 114.44 506.521 117.587 505.881 119.88ZM529.767 118.52C532.594 116.973 534.007 115.4 534.007 113.8C534.007 112.2 533.047 111.4 531.127 111.4C530.22 111.4 529.26 111.64 528.247 112.12C526.007 113.133 523.847 114.893 521.767 117.4C519.207 120.493 517.927 123.373 517.927 126.04C517.927 127.053 518.194 128.013 518.727 128.92C519.314 129.773 520.327 130.2 521.767 130.2C524.274 130.2 527.447 128.893 531.287 126.28C535.127 123.613 538.434 120.947 541.207 118.28C541.847 117.64 542.167 117.613 542.167 118.2C542.167 118.573 542.007 118.893 541.687 119.16C539.714 120.973 538.38 122.2 537.687 122.84C537.047 123.427 535.74 124.52 533.767 126.12C531.794 127.667 530.194 128.76 528.967 129.4C525.18 131.373 521.954 132.36 519.287 132.36C516.674 132.36 514.594 131.773 513.047 130.6C511.554 129.373 510.807 127.693 510.807 125.56C510.807 121.027 512.834 117.133 516.887 113.88C520.94 110.573 525.18 108.92 529.607 108.92C532.594 108.92 534.594 109.56 535.607 110.84C536.034 111.48 536.247 112.173 536.247 112.92C536.247 113.613 536.007 114.387 535.527 115.24C534.567 116.893 532.754 118.36 530.087 119.64C527.474 120.867 524.994 121.48 522.647 121.48C521.74 121.48 521.234 121.4 521.127 121.24C521.074 121.08 521.154 120.973 521.367 120.92C521.58 120.813 521.874 120.76 522.247 120.76C524.38 120.76 526.887 120.013 529.767 118.52ZM557.111 118.52C559.937 116.973 561.351 115.4 561.351 113.8C561.351 112.2 560.391 111.4 558.471 111.4C557.564 111.4 556.604 111.64 555.591 112.12C553.351 113.133 551.191 114.893 549.111 117.4C546.551 120.493 545.271 123.373 545.271 126.04C545.271 127.053 545.537 128.013 546.071 128.92C546.657 129.773 547.671 130.2 549.111 130.2C551.617 130.2 554.791 128.893 558.631 126.28C562.471 123.613 565.777 120.947 568.551 118.28C569.191 117.64 569.511 117.613 569.511 118.2C569.511 118.573 569.351 118.893 569.031 119.16C567.057 120.973 565.724 122.2 565.031 122.84C564.391 123.427 563.084 124.52 561.111 126.12C559.137 127.667 557.537 128.76 556.311 129.4C552.524 131.373 549.297 132.36 546.631 132.36C544.017 132.36 541.937 131.773 540.391 130.6C538.897 129.373 538.151 127.693 538.151 125.56C538.151 121.027 540.177 117.133 544.231 113.88C548.284 110.573 552.524 108.92 556.951 108.92C559.937 108.92 561.937 109.56 562.951 110.84C563.377 111.48 563.591 112.173 563.591 112.92C563.591 113.613 563.351 114.387 562.871 115.24C561.911 116.893 560.097 118.36 557.431 119.64C554.817 120.867 552.337 121.48 549.991 121.48C549.084 121.48 548.577 121.4 548.471 121.24C548.417 121.08 548.497 120.973 548.711 120.92C548.924 120.813 549.217 120.76 549.591 120.76C551.724 120.76 554.231 120.013 557.111 118.52ZM580.134 103.56C581.308 101.8 582.241 100.413 582.934 99.4C583.681 98.3333 584.268 97.56 584.694 97.08C585.121 96.6 586.081 96.2 587.574 95.88C589.068 95.5067 590.508 95.32 591.894 95.32C593.281 95.32 593.974 95.48 593.974 95.8C593.974 96.0667 592.828 97.2933 590.534 99.48C588.241 101.667 585.574 104.573 582.534 108.2C586.161 108.787 588.534 109.933 589.654 111.64C590.081 112.387 590.134 112.867 589.814 113.08C589.548 113.293 589.228 113.213 588.854 112.84C587.734 111.72 585.948 111.16 583.494 111.16C582.428 111.16 581.228 111.267 579.894 111.48C575.574 117.027 572.854 121.56 571.734 125.08C571.361 126.093 571.174 126.947 571.174 127.64C571.174 129.507 571.948 130.44 573.494 130.44C575.148 130.44 577.468 129.293 580.454 127C584.348 124.067 587.734 121.16 590.614 118.28C591.148 117.693 591.494 117.56 591.654 117.88C591.814 118.2 591.681 118.547 591.254 118.92C586.668 123.72 582.801 127.267 579.654 129.56C576.561 131.8 573.708 132.92 571.094 132.92C567.521 132.92 565.734 131.027 565.734 127.24C565.734 125.427 566.241 123.267 567.254 120.76L565.814 122.12C565.388 122.547 565.094 122.68 564.934 122.52C564.721 122.307 564.614 122.12 564.614 121.96C564.614 121.8 564.828 121.533 565.254 121.16C569.148 117.747 571.814 115.16 573.254 113.4C572.241 113.773 571.548 113.8 571.174 113.48C570.854 113.16 570.614 112.733 570.454 112.2C570.348 111.667 570.614 111.027 571.254 110.28C571.948 109.48 572.934 108.92 574.214 108.6C575.548 108.227 576.534 108.013 577.174 107.96C577.974 106.787 578.961 105.32 580.134 103.56ZM583.362 126.6C583.309 126.547 583.282 126.467 583.282 126.36C583.282 126.253 583.389 126.2 583.602 126.2C583.762 126.2 583.869 126.307 583.922 126.52C584.882 128.653 586.455 129.72 588.642 129.72C591.362 129.72 593.735 128.387 595.762 125.72C597.255 123.747 598.562 121.693 599.682 119.56C600.855 117.373 601.815 115.64 602.562 114.36C603.362 113.08 604.562 111.64 606.162 110.04C607.815 108.44 609.309 107.453 610.642 107.08C610.322 106.92 609.789 106.84 609.042 106.84C608.295 106.84 606.882 107.4 604.802 108.52C602.775 109.587 600.749 110.973 598.722 112.68C596.695 114.333 594.509 116.227 592.162 118.36C589.815 120.493 588.402 121.747 587.922 122.12C587.442 122.493 587.149 122.493 587.042 122.12C586.935 121.747 587.069 121.4 587.442 121.08C588.829 119.907 590.829 118.093 593.442 115.64C596.055 113.133 598.029 111.32 599.362 110.2C600.749 109.027 602.295 108.04 604.002 107.24C605.709 106.387 606.989 105.96 607.842 105.96C609.975 105.96 611.282 106.333 611.762 107.08C610.375 107.667 609.229 109.213 608.322 111.72C607.469 114.227 606.482 117.133 605.362 120.44C604.295 123.747 602.935 126.333 601.282 128.2C602.669 127.667 604.802 126.44 607.682 124.52C610.615 122.547 613.202 120.413 615.442 118.12C615.922 117.693 616.269 117.64 616.482 117.96C616.482 118.067 616.482 118.2 616.482 118.36C616.482 118.467 615.975 119.027 614.962 120.04C613.949 121.053 612.695 122.2 611.202 123.48C609.762 124.707 607.949 126.093 605.762 127.64C601.229 130.84 596.669 132.44 592.082 132.44C587.549 132.44 584.642 130.493 583.362 126.6Z" fill="#C18BAE"/>
</g>
<defs>
<clipPath id="clip0">
<rect width="613" height="218" fill="white"/>
</clipPath>
<clipPath id="clip1">
<rect width="217.2" height="217.9" fill="white"/>
</clipPath>
</defs>
</svg>
