<svg width="150" height="150" xmlns="http://www.w3.org/2000/svg" viewBox="0 0 350 350">
  <g id="Layer_2" data-name="Layer 2">
    <text transform="translate(34.08604 297.4253)" font-size="55.60982" fill="#c18bae" font-family="SnellRoundhand-Bold, Snell Roundhand" font-weight="700">Rosi Sweets</text>
    <g>
      <path d="M175.01376,15.94543c-59.974,0-108.59633,48.75974-108.59633,108.92614s48.62234,108.92614,108.59633,108.92614c59.94647,0,108.56881-48.75974,108.56881-108.92614S234.96023,15.94543,175.01376,15.94543Zm0,210.21133c-55.08161,0-99.691-45.35153-99.691-101.28519,0-55.93349,44.60936-101.285,99.691-101.285,55.05392,0,99.66345,45.35153,99.66345,101.285C274.67721,180.80523,230.06768,226.15676,175.01376,226.15676Z" fill="#c18bae"/>
      <path d="M167.01266,127.68415c15.23864,0,27.592-11.29327,27.592-25.22452,0-9.8218-6.14064-18.33233-15.10336-22.4987,14.32722.51052,25.77825,11.75495,25.77825,25.55163,0,14.12168-11.997,25.5699-26.79578,25.5699a27.65847,27.65847,0,0,1-13.47518-3.46367Q166.00094,127.68362,167.01266,127.68415Z" fill="#c18bae" fill-rule="evenodd"/>
      <path d="M174.14975,73.29853c-14.34128,5.16914-22.161,19.98756-17.46623,33.098,3.31012,9.24416,11.95768,15.17083,21.79739,16.051-13.65543,4.3793-28.22088-2.31894-32.87036-15.30294C140.85144,93.85423,148.284,79.01122,162.211,73.9914a27.64423,27.64423,0,0,1,13.848-1.31126Q175.10246,72.95578,174.14975,73.29853Z" fill="#c18bae" fill-rule="evenodd"/>
      <path d="M221.88631,84.05422a27.05417,27.05417,0,0,0,.36436-5.49239c-.69673-19.60107-22.41648-34.88134-48.51236-34.12979s-46.686,17.25032-45.98892,36.85139q.02425.68516.08257,1.36361c6.97054-13.42424,24.42869-23.23654,45.18995-23.8342C195.87758,58.1544,215.53135,68.8711,221.88631,84.05422Z" fill="#c18bae" fill-rule="evenodd"/>
      <path d="M213.05293,127.38322c4.401,1.75231,10.31353,4.68988,18.626,7.02041,10.75768,3.01607,24.63125,2.46076,25.943.43461,1.47322-2.27555-8.33629-13.66786-15.24563-18.63238a62.62921,62.62921,0,0,0-22.491-10.07789" fill="none" stroke="#cdbfab" stroke-miterlimit="10" stroke-width="1.99457"/>
      <path d="M222.25911,117.80276c15.71683,1.55284,38.50126,18.99137,38.50126,18.99137" fill="none" stroke="#cdbfab" stroke-linecap="round" stroke-miterlimit="10" stroke-width="1.99457"/>
      <path d="M132.08153,127.39048c-4.401,1.75231-10.31352,4.68988-18.626,7.02041-10.75767,3.01607-24.40172,2.42148-25.943.43461-1.63646-2.10958,8.33629-13.66786,15.24564-18.63238a62.62932,62.62932,0,0,1,22.491-10.07789" fill="none" stroke="#cdbfab" stroke-linecap="round" stroke-miterlimit="10" stroke-width="1.99457"/>
      <path d="M123.76622,117.13882C108.04939,118.69166,85.265,136.1302,85.265,136.1302" fill="none" stroke="#cdbfab" stroke-linecap="round" stroke-miterlimit="10" stroke-width="1.99457"/>
      <path d="M183.21472,143.03205c18.60955,0,33.6957-16.17254,33.6957-36.1225,0-14.06477-7.49828-26.25223-18.44335-32.2186,17.49575.73222,31.47864,16.83449,31.47864,36.59086,0,20.223-14.65082,36.61687-32.72314,36.61687a29.97109,29.97109,0,0,1-16.45749-4.96078Q181.97831,143.03119,183.21472,143.03205Z" fill="#c18bae" fill-rule="evenodd"/>
      <path d="M136.80874,82.85821c-13.19094,18.84073-9.36292,43.9855,8.55024,56.16242,12.31114,8.36893,28.07155,8.43464,41.007,1.54069-12.95729,13.57638-34.82847,15.89216-51.404,4.62454-18.21779-12.38422-23.13957-36.48721-10.99356-53.83539a37.50094,37.50094,0,0,1,16.6799-13.24962A44.685,44.685,0,0,0,136.80874,82.85821Z" fill="#c18bae" fill-rule="evenodd"/>
      <path d="M132.49093,168.94783c2.80981,8.91189,3.553,22.20613,3.74554,29.4281a5.27043,5.27043,0,0,0,5.27843,5.11718h66.92743a5.26314,5.26314,0,0,0,5.27936-5.37378c-.16389-7.23154-.08747-20.21927,2.08689-29.1715a121.24531,121.24531,0,0,1,4.57694-13.65453A.9795.9795,0,0,0,218.95,154.112l-8.29393,5.10468a3.26436,3.26436,0,0,1-3.13459.17578c-2.24339-1.08448-6.47063-2.80072-9.51716-2.071-2.3878.57192-5.194,2.92057-6.66986,4.28565a1.41376,1.41376,0,0,1-1.99476-.08157c-1.51282-1.5832-4.53275-4.33817-7.12-4.20408-2.3132.11982-4.90659,2.58149-6.29611,4.10128a1.399,1.399,0,0,1-2.04569.04152c-1.55078-1.60048-4.55934-4.30443-7.05178-4.1428-2.21634.14375-4.78976,2.60315-6.17257,4.11453a1.3946,1.3946,0,0,1-2.03652.04394c-1.5047-1.53832-4.38136-4.11685-6.79309-4.15847-2.58864-.04482-7.29423,1.52125-9.62172,2.36043a3.27943,3.27943,0,0,1-2.70621-.21571l-10.30364-5.673a.98261.98261,0,0,0-1.40231,1.18462C128.94458,158.27942,131.02742,164.30656,132.49093,168.94783Z" fill="#cdbfab"/>
    </g>
  </g>
</svg>
