<svg width="150" height="150" xmlns="http://www.w3.org/2000/svg" viewBox="0 0 350 350">
  <g id="Pink_Logo" data-name="Pink Logo">
    <path d="M179.07381,16.39855c-62.28636,0-112.78339,50.63973-112.78339,113.12592s50.497,113.12593,112.78339,113.12593c62.25778,0,112.75481-50.63973,112.75481-113.12593S241.33159,16.39855,179.07381,16.39855Zm0,218.31628c-57.20534,0-103.53467-47.10011-103.53467-105.19036,0-58.09007,46.32933-105.19018,103.53467-105.19018,57.17659,0,103.50609,47.10011,103.50609,105.19018C282.5799,187.61472,236.2504,234.71483,179.07381,234.71483Z" fill="#fff"/>
    <path d="M170.76422,132.44549c15.82619,0,28.65579-11.72869,28.65579-26.19708,0-10.20048-6.3774-19.03915-15.68569-23.36616,14.87963.5302,26.77216,12.20818,26.77216,26.5368,0,14.66616-12.4596,26.55578-27.82892,26.55578a28.725,28.725,0,0,1-13.99473-3.59721Q169.7135,132.44494,170.76422,132.44549Z" fill="#fff" fill-rule="evenodd"/>
    <path d="M178.17649,75.963c-14.89423,5.36844-23.01549,20.7582-18.13966,34.37418,3.43774,9.60058,12.41872,15.75576,22.63781,16.66983-14.18193,4.54815-29.309-2.40835-34.13772-15.893-4.9426-13.8028,2.77655-29.2181,17.24055-34.43146a28.71009,28.71009,0,0,1,14.3819-1.36182Q179.16592,75.607,178.17649,75.963Z" fill="#fff" fill-rule="evenodd"/>
    <path d="M227.75359,87.13336a28.09816,28.09816,0,0,0,.37841-5.70415C227.4084,61.0724,204.85122,45.203,177.74918,45.9835s-48.486,17.91543-47.76207,38.27224q.02518.71157.08575,1.41619c7.2393-13.94183,25.37057-24.13246,46.9323-24.75316C200.74206,60.23494,221.15361,71.36484,227.75359,87.13336Z" fill="#fff" fill-rule="evenodd"/>
    <path d="M218.57963,132.133c4.57072,1.81988,10.71118,4.8707,19.34418,7.29109,11.17245,3.13236,25.58093,2.55564,26.94326.45137,1.53-2.36329-8.6577-14.19484-15.83345-19.35078a65.0441,65.0441,0,0,0-23.35815-10.46645" fill="none" stroke="#fff" stroke-miterlimit="10" stroke-width="2.07148"/>
    <path d="M228.14076,122.18311c16.32281,1.61272,39.98572,19.72362,39.98572,19.72362" fill="none" stroke="#fff" stroke-linecap="round" stroke-miterlimit="10" stroke-width="2.07148"/>
    <path d="M134.48628,132.1405c-4.57072,1.81988-10.71118,4.8707-19.34418,7.29109-11.17245,3.13236-25.34256,2.51485-26.94326.45137-1.69956-2.19092,8.6577-14.19484,15.83345-19.35078a65.0441,65.0441,0,0,1,23.35815-10.46645" fill="none" stroke="#fff" stroke-linecap="round" stroke-miterlimit="10" stroke-width="2.07148"/>
    <path d="M125.85037,121.49358c-16.32282,1.61271-39.98573,19.72361-39.98573,19.72361" fill="none" stroke="#fff" stroke-linecap="round" stroke-miterlimit="10" stroke-width="2.07148"/>
    <path d="M187.591,148.38515c19.32706,0,34.99488-16.79609,34.99488-37.51525,0-14.607-7.78739-27.26441-19.15446-33.46082,18.17032.76045,32.69234,17.48357,32.69234,38.00167,0,21.00269-15.2157,38.02867-33.98482,38.02867a31.12668,31.12668,0,0,1-17.092-5.15205Q186.30688,148.38426,187.591,148.38515Z" fill="#fff" fill-rule="evenodd"/>
    <path d="M139.39575,85.89123c-13.69953,19.56717-9.72392,45.68142,8.87991,58.32783,12.78581,8.69162,29.15388,8.75986,42.58812,1.60011-13.45687,14.09982-36.17132,16.50489-53.38595,4.80284-18.9202-12.86171-24.03175-37.894-11.41744-55.91109a38.94679,38.94679,0,0,1,17.323-13.76046A46.40879,46.40879,0,0,0,139.39575,85.89123Z" fill="#fff" fill-rule="evenodd"/>
    <path d="M134.91147,175.30015c2.91814,9.2555,3.69,23.06231,3.88995,30.56274a5.47364,5.47364,0,0,0,5.48194,5.31447h69.5079a5.46606,5.46606,0,0,0,5.48291-5.581c-.17021-7.51037-.09084-20.99885,2.16735-30.29624a125.91711,125.91711,0,0,1,4.75342-14.181,1.01727,1.01727,0,0,0-1.49086-1.22682l-8.61371,5.30149a3.39021,3.39021,0,0,1-3.25544.18256c-2.32989-1.12629-6.72012-2.9087-9.88411-2.15085-2.47986.594-5.39425,3.03318-6.927,4.45089a1.46826,1.46826,0,0,1-2.07167-.08472c-1.57114-1.64424-4.70751-4.50543-7.39455-4.36617-2.4024.12444-5.09578,2.681-6.53887,4.25941a1.453,1.453,0,0,1-2.12457.04312c-1.61057-1.66219-4.73513-4.47039-7.32366-4.30253-2.3018.14929-4.97444,2.70352-6.41056,4.27317a1.44838,1.44838,0,0,1-2.115.04563c-1.56271-1.59762-4.55029-4.27558-7.055-4.3188-2.68845-.04655-7.57547,1.5799-9.9927,2.45144a3.40586,3.40586,0,0,1-2.81055-.224l-10.70091-5.89171a1.0205,1.0205,0,0,0-1.45638,1.2303C131.22838,164.2204,133.39153,170.47993,134.91147,175.30015Z" fill="#fff"/>
    <text transform="translate(63.0516 305.05502)" font-size="44.17889" fill="#fff" font-family="SnellRoundhand-Bold, Snell Roundhand" font-weight="700">Rosi Sweets</text>
  </g>
</svg>
