<svg width="280" height="100" xmlns="http://www.w3.org/2000/svg" viewBox="0 0 854.02693 297.4253">
  <g id="Logo_Text_Side" data-name="Logo Text Side">
    <g>
      <path d="M146.6664,4.7114C67.3803,4.7114,3.10117,69.17217,3.10117,148.71265S67.3803,292.7139,146.6664,292.7139c79.24972,0,143.52886-64.46077,143.52886-144.00125S225.91612,4.7114,146.6664,4.7114Zm0,277.90109c-72.81833,0-131.79227-59.95509-131.79227-133.89984C14.87413,74.76812,73.84807,14.813,146.6664,14.813c72.78173,0,131.7559,59.95509,131.7559,133.89962C278.4223,222.6574,219.44813,282.61249,146.6664,282.61249Z" fill="#c18bae"/>
      <path d="M136.08889,152.4309c20.14561,0,36.47678-14.92979,36.47678-33.347,0-12.98449-8.118-24.23548-19.96677-29.74347,18.94071.67492,34.07906,15.54015,34.07906,33.77947,0,18.669-15.86019,33.80361-35.42424,33.80361a36.5648,36.5648,0,0,1-17.8143-4.579Q134.75138,152.4302,136.08889,152.4309Z" fill="#c18bae" fill-rule="evenodd"/>
      <path d="M145.52418,80.53267c-18.95929,6.83364-29.29708,26.42371-23.0905,43.75588,4.376,12.22086,15.80815,20.056,28.81633,21.21951-18.05259,5.78947-37.30823-3.06565-43.45489-20.2306-6.29159-17.57,3.53434-37.19257,21.946-43.82881a36.54589,36.54589,0,0,1,18.30713-1.73349Q146.78365,80.07956,145.52418,80.53267Z" fill="#c18bae" fill-rule="evenodd"/>
      <path d="M208.6323,94.75178a35.7669,35.7669,0,0,0,.48169-7.261c-.92109-25.91277-29.63478-46.11342-64.13374-45.11987S83.261,65.176,84.18253,91.08878q.032.90576.10915,1.8027c9.21512-17.747,32.29493-30.7189,59.74148-31.509C174.24854,60.512,200.231,74.67957,208.6323,94.75178Z" fill="#c18bae" fill-rule="evenodd"/>
      <path d="M196.9545,152.03307c5.8182,2.31657,13.63457,6.20006,24.62377,9.281,14.22173,3.98727,32.56271,3.25315,34.29686.57456,1.9476-3.0083-11.02065-18.069-20.15486-24.63216A82.79661,82.79661,0,0,0,205.987,123.93345" fill="none" stroke="#cdbfab" stroke-miterlimit="10" stroke-width="2.63684"/>
      <path d="M209.12514,139.36762c20.77778,2.05287,50.899,25.10676,50.899,25.10676" fill="none" stroke="#cdbfab" stroke-linecap="round" stroke-miterlimit="10" stroke-width="2.63684"/>
      <path d="M89.90965,152.04267c-5.8182,2.31657-13.63456,6.20006-24.62377,9.281-14.22173,3.98727-32.25927,3.20122-34.29685.57456-2.16342-2.78888,11.02064-18.069,20.15486-24.63216a82.79651,82.79651,0,0,1,29.73326-13.32306" fill="none" stroke="#cdbfab" stroke-linecap="round" stroke-miterlimit="10" stroke-width="2.63684"/>
      <path d="M78.91674,138.4899c-20.77778,2.05286-50.899,25.10675-50.899,25.10675" fill="none" stroke="#cdbfab" stroke-linecap="round" stroke-miterlimit="10" stroke-width="2.63684"/>
      <path d="M157.50814,172.72095c24.602,0,44.546-21.38023,44.546-47.75424,0-18.59373-9.91278-34.70566-24.38226-42.59325,23.12952.968,41.615,22.25534,41.615,48.37342,0,26.73494-19.3685,48.4078-43.26026,48.4078a39.622,39.622,0,0,1-21.75694-6.5582Q155.87359,172.71981,157.50814,172.72095Z" fill="#c18bae" fill-rule="evenodd"/>
      <path d="M96.15906,93.17064c-17.43853,24.90761-12.37786,58.14919,11.30348,74.24718,16.27543,11.0638,37.11082,11.15067,54.21165,2.03681-17.12963,17.94808-46.04351,21.00957-67.95651,6.11368-24.08407-16.372-30.59071-48.23639-14.53358-71.17083a49.57661,49.57661,0,0,1,22.051-17.5161A59.0744,59.0744,0,0,0,96.15906,93.17064Z" fill="#c18bae" fill-rule="evenodd"/>
      <path d="M90.45088,206.98183c3.71459,11.78159,4.69707,29.35668,4.95163,38.90419a6.96756,6.96756,0,0,0,6.97813,6.76495h88.4786a6.95792,6.95792,0,0,0,6.97937-7.10418c-.21667-9.56016-.11564-26.73,2.75887-38.565a160.28741,160.28741,0,0,1,6.05076-18.0514,1.29491,1.29491,0,0,0-1.89774-1.56166l-10.96465,6.74843a4.3155,4.3155,0,0,1-4.14394.23237c-2.96579-1.43368-8.55424-3.70257-12.58178-2.73787-3.15668.75608-6.86649,3.861-8.8176,5.66566a1.869,1.869,0,0,1-2.63709-.10783c-2-2.093-5.99233-5.7351-9.41275-5.55783-3.05807.15841-6.48655,3.41275-8.3235,5.42192a1.84951,1.84951,0,0,1-2.70443.05489c-2.05014-2.11584-6.02749-5.69048-9.32251-5.47681-2.93.19-6.3321,3.44139-8.16018,5.43945a1.84369,1.84369,0,0,1-2.6923.05808c-1.98923-2.03367-5.7922-5.44251-8.98052-5.49753-3.42221-.05925-9.643,2.0111-12.72,3.1205a4.33541,4.33541,0,0,1-3.57764-.28517l-13.6215-7.49972a1.299,1.299,0,0,0-1.85386,1.56608C85.76257,192.8781,88.51611,200.846,90.45088,206.98183Z" fill="#cdbfab"/>
    </g>
    <text transform="translate(330.55852 167.81157)" font-size="101.05645" fill="#c18bae" font-family="SnellRoundhand-Bold, Snell Roundhand" font-weight="700">Rosi Sweets</text>
  </g>
</svg>
